<?xml version="1.0" encoding="UTF-8" standalone="no" ?>
<!DOCTYPE svg PUBLIC "-//W3C//DTD SVG 1.0//EN" "http://www.w3.org/TR/2001/REC-SVG-20010904/DTD/svg10.dtd">
<svg width="408" height="137">
<path d="M 0,0 L 125.4,0 L 152.2,52.3 L 185.5,0 L 230.5,0 L 143.3,137 L 98.3,137 L 123.3,98.2 C 124.9,94.5 130.1,90.5 127,86.1 L 102.7,38.2 L 82,38 L 82,137 L 40,137 L 40,38 L 0,38 L 0,0 z" style="fill:#00529c" />
<path d="M 240.3,0 L 291,0 L 291,137 L 255,137 L 255,114 L 212.1,114 L 198.3,137 L 152.6,137 L 240.3,0 z" style="fill:#00529c" />
<path d="M 300,0 L 335.7,0 L 370.8,63.3 L 371,0 L 408,0 L 408,137 L 371.3,137 L 336.3,70.7 L 336,137 L 300,137 L 300,0 z" style="fill:#00529c" />
<path d="M 231,83 L 254.8,43.7 L 255,83 L 231,83 z" style="fill:#ffffff" />
</svg>